Sumana Devanagari-Regular.ufo
<glyph name="exclam" format="1">
  <advance width="266"/>
  <unicode hex="0021"/>
  <outline>
    <contour>
      <point x="89" y="722"/>
      <point x="67" y="679"/>
      <point x="70" y="642" type="curve"/>
      <point x="110" y="224" type="line"/>
      <point x="155" y="224" type="line"/>
      <point x="195" y="642" type="line"/>
      <point x="198" y="679"/>
      <point x="179" y="722"/>
      <point x="133" y="722" type="curve"/>
    </contour>
    <contour>
      <point x="100" y="119"/>
      <point x="69" y="87"/>
      <point x="69" y="48" type="curve"/>
      <point x="69" y="9"/>
      <point x="99" y="-22"/>
      <point x="132" y="-22" type="curve"/>
      <point x="165" y="-22"/>
      <point x="196" y="9"/>
      <point x="196" y="48" type="curve"/>
      <point x="196" y="87"/>
      <point x="168" y="119"/>
      <point x="133" y="119" type="curve"/>
    </contour>
  </outline>
</glyph>
<glyph name="numbersign" format="1">
  <advance width="830"/>
  <unicode hex="0023"/>
  <outline>
    <contour>
      <point x="602" y="722" type="line"/>
      <point x="558" y="535" type="line"/>
      <point x="356" y="535" type="line"/>
      <point x="399" y="722" type="line"/>
      <point x="322" y="722" type="line"/>
      <point x="278" y="535" type="line"/>
      <point x="111" y="535" type="line"/>
      <point x="92" y="463" type="line"/>
      <point x="261" y="463" type="line"/>
      <point x="209" y="244" type="line"/>
      <point x="45" y="244" type="line"/>
      <point x="26" y="172" type="line"/>
      <point x="192" y="172" type="line"/>
      <point x="147" y="-22" type="line"/>
      <point x="230" y="-22" type="line"/>
      <point x="274" y="172" type="line"/>
      <point x="472" y="172" type="line"/>
      <point x="427" y="-22" type="line"/>
      <point x="510" y="-22" type="line"/>
      <point x="554" y="172" type="line"/>
      <point x="718" y="172" type="line"/>
      <point x="737" y="244" type="line"/>
      <point x="570" y="244" type="line"/>
      <point x="619" y="463" type="line"/>
      <point x="785" y="463" type="line"/>
      <point x="801" y="527" type="line"/>
      <point x="801" y="535" type="line"/>
      <point x="636" y="535" type="line"/>
      <point x="679" y="722" type="line"/>
    </contour>
    <contour>
      <point x="489" y="244" type="line"/>
      <point x="290" y="244" type="line"/>
      <point x="339" y="463" type="line"/>
      <point x="540" y="463" type="line"/>
    </contour>
  </outline>
</glyph>
<glyph name="asterisk" format="1">
  <advance width="520"/>
  <unicode hex="002A"/>
  <outline>
    <contour>
      <point x="219" y="722"/>
      <point x="213" y="675"/>
      <point x="217" y="643" type="curve"/>
      <point x="221" y="603"/>
      <point x="227" y="558"/>
      <point x="236" y="520" type="curve"/>
      <point x="203" y="541"/>
      <point x="163" y="559"/>
      <point x="126" y="576" type="curve"/>
      <point x="95" y="591"/>
      <point x="51" y="600"/>
      <point x="37" y="561" type="curve"/>
      <point x="23" y="519"/>
      <point x="66" y="501"/>
      <point x="98" y="494" type="curve"/>
      <point x="136" y="487"/>
      <point x="181" y="478"/>
      <point x="220" y="475" type="curve"/>
      <point x="191" y="451"/>
      <point x="162" y="419"/>
      <point x="134" y="390" type="curve"/>
      <point x="113" y="366"/>
      <point x="90" y="322"/>
      <point x="122" y="297" type="curve"/>
      <point x="157" y="274"/>
      <point x="186" y="307"/>
      <point x="202" y="335" type="curve"/>
      <point x="221" y="370"/>
      <point x="244" y="413"/>
      <point x="260" y="449" type="curve"/>
      <point x="275" y="413"/>
      <point x="299" y="370"/>
      <point x="318" y="335" type="curve"/>
      <point x="335" y="307"/>
      <point x="364" y="274"/>
      <point x="397" y="297" type="curve"/>
      <point x="431" y="322"/>
      <point x="407" y="367"/>
      <point x="385" y="390" type="curve"/>
      <point x="357" y="419"/>
      <point x="327" y="451"/>
      <point x="298" y="475" type="curve"/>
      <point x="336" y="478"/>
      <point x="381" y="487"/>
      <point x="420" y="494" type="curve"/>
      <point x="453" y="502"/>
      <point x="495" y="519"/>
      <point x="481" y="561" type="curve"/>
      <point x="468" y="599"/>
      <point x="422" y="591"/>
      <point x="392" y="576" type="curve"/>
      <point x="355" y="559"/>
      <point x="315" y="540"/>
      <point x="282" y="520" type="curve"/>
      <point x="291" y="557"/>
      <point x="297" y="603"/>
      <point x="301" y="643" type="curve"/>
      <point x="305" y="675"/>
      <point x="302" y="722"/>
      <point x="260" y="722" type="curve"/>
    </contour>
  </outline>
</glyph>
<glyph name="period" format="1">
  <advance width="246"/>
  <unicode hex="002E"/>
  <outline>
    <contour>
      <point x="90" y="119"/>
      <point x="59" y="87"/>
      <point x="59" y="48" type="curve"/>
      <point x="59" y="9"/>
      <point x="89" y="-22"/>
      <point x="122" y="-22" type="curve"/>
      <point x="155" y="-22"/>
      <point x="186" y="9"/>
      <point x="186" y="48" type="curve"/>
      <point x="186" y="87"/>
      <point x="158" y="119"/>
      <point x="123" y="119" type="curve"/>
    </contour>
  </outline>
</glyph>
<glyph name="R" format="1">
  <advance width="628"/>
  <unicode hex="0052"/>
  <outline>
    <contour>
      <point x="206" y="703"/>
      <point x="127" y="701"/>
      <point x="51" y="700" type="curve"/>
      <point x="48" y="700" type="line"/>
      <point x="48" y="652" type="line"/>
      <point x="123" y="656" type="line"/>
      <point x="120" y="656" type="line"/>
      <point x="118" y="636"/>
      <point x="117" y="612"/>
      <point x="117" y="586" type="curve"/>
      <point x="117" y="158" type="line"/>
      <point x="117" y="86"/>
      <point x="123" y="38"/>
      <point x="51" y="37" type="curve"/>
      <point x="48" y="37" type="line"/>
      <point x="48" y="0" type="line"/>
      <point x="287" y="0" type="line"/>
      <point x="287" y="48" type="line"/>
      <point x="215" y="44" type="line"/>
      <point x="217" y="62"/>
      <point x="218" y="87"/>
      <point x="218" y="121" type="curve"/>
      <point x="218" y="311" type="line"/>
      <point x="215" y="311" type="line"/>
      <point x="236" y="310"/>
      <point x="257" y="309"/>
      <point x="277" y="311" type="curve"/>
      <point x="275" y="311" type="line"/>
      <point x="300" y="287"/>
      <point x="321" y="247"/>
      <point x="340" y="217" type="curve"/>
      <point x="407" y="112" type="line"/>
      <point x="434" y="70"/>
      <point x="456" y="36"/>
      <point x="498" y="0" type="curve"/>
      <point x="500" y="0" type="line"/>
      <point x="635" y="0" type="line"/>
      <point x="635" y="37" type="line"/>
      <point x="571" y="35"/>
      <point x="548" y="74"/>
      <point x="512" y="131" type="curve"/>
      <point x="444" y="236" type="line"/>
      <point x="421" y="272"/>
      <point x="403" y="300"/>
      <point x="377" y="321" type="curve"/>
      <point x="375" y="321" type="line"/>
      <point x="528" y="354"/>
      <point x="564" y="443"/>
      <point x="563" y="520" type="curve"/>
      <point x="563" y="630"/>
      <point x="481" y="698"/>
      <point x="284" y="701" type="curve"/>
    </contour>
    <contour>
      <point x="399" y="659"/>
      <point x="452" y="611"/>
      <point x="452" y="509" type="curve"/>
      <point x="452" y="394"/>
      <point x="379" y="356"/>
      <point x="273" y="352" type="curve"/>
      <point x="251" y="351"/>
      <point x="235" y="352"/>
      <point x="215" y="354" type="curve"/>
      <point x="218" y="354" type="line"/>
      <point x="218" y="542" type="line"/>
      <point x="218" y="613"/>
      <point x="212" y="659"/>
      <point x="280" y="659" type="curve"/>
    </contour>
    <contour>
      <point x="314" y="700" type="move" name="top"/>
    </contour>
    <contour>
      <point x="334" y="0" type="move" name="bottom"/>
    </contour>
  </outline>
</glyph>
<glyph name="W" format="1">
  <advance width="995"/>
  <unicode hex="0057"/>
  <outline>
    <contour>
      <point x="489" y="702" type="line"/>
      <point x="472" y="642"/>
      <point x="411" y="466"/>
      <point x="355" y="290" type="curve"/>
      <point x="346" y="262"/>
      <point x="327" y="203"/>
      <point x="315" y="159" type="curve"/>
      <point x="325" y="159" type="line"/>
      <point x="306" y="220"/>
      <point x="287" y="265"/>
      <point x="268" y="326" type="curve"/>
      <point x="242" y="403"/>
      <point x="215" y="467"/>
      <point x="192" y="557" type="curve"/>
      <point x="169" y="637"/>
      <point x="178" y="660"/>
      <point x="254" y="663" type="curve"/>
      <point x="257" y="663" type="line"/>
      <point x="257" y="700" type="line"/>
      <point x="0" y="700" type="line"/>
      <point x="0" y="652" type="line"/>
      <point x="60" y="654" type="line"/>
      <point x="56" y="654" type="line"/>
      <point x="62" y="625"/>
      <point x="75" y="589"/>
      <point x="98" y="519" type="curve"/>
      <point x="278" y="-12" type="line"/>
      <point x="319" y="-12" type="line"/>
      <point x="489" y="503" type="line"/>
      <point x="670" y="-12" type="line"/>
      <point x="712" y="-12" type="line"/>
      <point x="776" y="163"/>
      <point x="832" y="336"/>
      <point x="893" y="516" type="curve"/>
      <point x="936" y="643"/>
      <point x="948" y="656"/>
      <point x="1017" y="663" type="curve"/>
      <point x="1017" y="700" type="line"/>
      <point x="800" y="700" type="line"/>
      <point x="800" y="652" type="line"/>
      <point x="879" y="655" type="line"/>
      <point x="866" y="631"/>
      <point x="857" y="604"/>
      <point x="849" y="585" type="curve"/>
      <point x="828" y="521"/>
      <point x="815" y="469"/>
      <point x="746" y="275" type="curve"/>
      <point x="731" y="229"/>
      <point x="717" y="184"/>
      <point x="706" y="147" type="curve"/>
      <point x="715" y="147" type="line"/>
      <point x="698" y="208"/>
      <point x="676" y="265"/>
      <point x="658" y="326" type="curve"/>
      <point x="632" y="404"/>
      <point x="558" y="614"/>
      <point x="533" y="702" type="curve"/>
    </contour>
    <contour>
      <point x="513" y="700" type="move" name="top"/>
    </contour>
  </outline>
</glyph>
<glyph name="Y" format="1">
  <advance width="634"/>
  <unicode hex="0059"/>
  <outline>
    <contour>
      <point x="433" y="700" type="line"/>
      <point x="433" y="652" type="line"/>
      <point x="521" y="655" type="line"/>
      <point x="518" y="658" type="line"/>
      <point x="514" y="658" type="line"/>
      <point x="493" y="635"/>
      <point x="475" y="601"/>
      <point x="465" y="582" type="curve"/>
      <point x="421" y="499"/>
      <point x="383" y="429"/>
      <point x="337" y="342" type="curve"/>
      <point x="340" y="342" type="line"/>
      <point x="344" y="342" type="line"/>
      <point x="346" y="342" type="line"/>
      <point x="291" y="420"/>
      <point x="256" y="476"/>
      <point x="205" y="557" type="curve"/>
      <point x="165" y="620"/>
      <point x="167" y="664"/>
      <point x="256" y="663" type="curve"/>
      <point x="259" y="663" type="line"/>
      <point x="259" y="700" type="line"/>
      <point x="-13" y="700" type="line"/>
      <point x="-13" y="652" type="line"/>
      <point x="53" y="654" type="line"/>
      <point x="50" y="654" type="line"/>
      <point x="55" y="630"/>
      <point x="70" y="596"/>
      <point x="104" y="542" type="curve"/>
      <point x="277" y="270" type="line"/>
      <point x="276" y="158" type="line"/>
      <point x="276" y="89"/>
      <point x="283" y="38"/>
      <point x="211" y="37" type="curve"/>
      <point x="208" y="37" type="line"/>
      <point x="208" y="0" type="line"/>
      <point x="457" y="0" type="line"/>
      <point x="457" y="48" type="line"/>
      <point x="371" y="44" type="line"/>
      <point x="374" y="44" type="line"/>
      <point x="376" y="62"/>
      <point x="377" y="88"/>
      <point x="376" y="124" type="curve"/>
      <point x="376" y="137"/>
      <point x="377" y="254"/>
      <point x="378" y="300" type="curve"/>
      <point x="417" y="374"/>
      <point x="458" y="451"/>
      <point x="503" y="535" type="curve"/>
      <point x="551" y="623"/>
      <point x="584" y="661"/>
      <point x="648" y="663" type="curve"/>
      <point x="651" y="663" type="line"/>
      <point x="651" y="700" type="line"/>
    </contour>
    <contour>
      <point x="331" y="700" type="move" name="top"/>
    </contour>
  </outline>
</glyph>
<glyph name="bracketleft" format="1">
  <advance width="359"/>
  <unicode hex="005B"/>
  <outline>
    <contour>
      <point x="75" y="761" type="line"/>
      <point x="74" y="-261" type="line"/>
      <point x="352" y="-261" type="line"/>
      <point x="352" y="-189" type="line"/>
      <point x="155" y="-186" type="line"/>
      <point x="160" y="686" type="line"/>
      <point x="350" y="689" type="line"/>
      <point x="350" y="761" type="line"/>
    </contour>
  </outline>
</glyph>
<glyph name="braceleft" format="1">
  <advance width="334"/>
  <unicode hex="007B"/>
  <outline>
    <contour>
      <point x="294" y="766" type="line"/>
      <point x="155" y="766"/>
      <point x="111" y="697"/>
      <point x="111" y="554" type="curve"/>
      <point x="111" y="494"/>
      <point x="121" y="437"/>
      <point x="121" y="386" type="curve"/>
      <point x="121" y="320"/>
      <point x="102" y="295"/>
      <point x="30" y="295" type="curve"/>
      <point x="2" y="295" type="line"/>
      <point x="2" y="231" type="line"/>
      <point x="30" y="231" type="line"/>
      <point x="102" y="231"/>
      <point x="121" y="202"/>
      <point x="121" y="136" type="curve"/>
      <point x="121" y="84"/>
      <point x="111" y="2"/>
      <point x="111" y="-57" type="curve"/>
      <point x="111" y="-200"/>
      <point x="154" y="-277"/>
      <point x="294" y="-277" type="curve"/>
      <point x="327" y="-277" type="line"/>
      <point x="327" y="-237" type="line"/>
      <point x="223" y="-242"/>
      <point x="198" y="-185"/>
      <point x="198" y="-71" type="curve"/>
      <point x="198" y="-26"/>
      <point x="211" y="78"/>
      <point x="211" y="125" type="curve"/>
      <point x="211" y="209"/>
      <point x="155" y="255"/>
      <point x="99" y="267" type="curve"/>
      <point x="99" y="259" type="line"/>
      <point x="155" y="271"/>
      <point x="211" y="313"/>
      <point x="211" y="397" type="curve"/>
      <point x="211" y="445"/>
      <point x="198" y="524"/>
      <point x="198" y="568" type="curve"/>
      <point x="198" y="682"/>
      <point x="222" y="724"/>
      <point x="327" y="720" type="curve"/>
      <point x="327" y="766" type="line"/>
    </contour>
  </outline>
</glyph>
<glyph name="threesuperior" format="1">
  <advance width="370"/>
  <unicode hex="00B3"/>
  <outline>
    <contour>
      <point x="102" y="722"/>
      <point x="59" y="663"/>
      <point x="59" y="625" type="curve"/>
      <point x="59" y="605"/>
      <point x="72" y="586"/>
      <point x="92" y="586" type="curve"/>
      <point x="117" y="585"/>
      <point x="127" y="609"/>
      <point x="127" y="621" type="curve"/>
      <point x="127" y="629"/>
      <point x="124" y="639"/>
      <point x="119" y="645" type="curve"/>
      <point x="124" y="662"/>
      <point x="141" y="676"/>
      <point x="169" y="677" type="curve"/>
      <point x="216" y="679"/>
      <point x="229" y="645"/>
      <point x="229" y="613" type="curve"/>
      <point x="229" y="592"/>
      <point x="225" y="547"/>
      <point x="151" y="547" type="curve"/>
      <point x="135" y="547" type="line"/>
      <point x="135" y="503" type="line"/>
      <point x="151" y="504"/>
      <point x="159" y="504"/>
      <point x="167" y="504" type="curve"/>
      <point x="233" y="503"/>
      <point x="245" y="455"/>
      <point x="245" y="423" type="curve"/>
      <point x="245" y="384"/>
      <point x="221" y="345"/>
      <point x="172" y="345" type="curve"/>
      <point x="145" y="345"/>
      <point x="119" y="355"/>
      <point x="113" y="375" type="curve"/>
      <point x="118" y="382"/>
      <point x="121" y="392"/>
      <point x="121" y="399" type="curve"/>
      <point x="121" y="415"/>
      <point x="111" y="438"/>
      <point x="84" y="437" type="curve"/>
      <point x="62" y="437"/>
      <point x="49" y="415"/>
      <point x="49" y="395" type="curve"/>
      <point x="49" y="350"/>
      <point x="93" y="301"/>
      <point x="172" y="299" type="curve"/>
      <point x="265" y="297"/>
      <point x="322" y="353"/>
      <point x="322" y="423" type="curve"/>
      <point x="322" y="478"/>
      <point x="286" y="527"/>
      <point x="218" y="535" type="curve"/>
      <point x="218" y="525" type="line"/>
      <point x="273" y="541"/>
      <point x="302" y="585"/>
      <point x="302" y="619" type="curve"/>
      <point x="302" y="681"/>
      <point x="253" y="722"/>
      <point x="183" y="722" type="curve"/>
    </contour>
  </outline>
</glyph>
<glyph name="onesuperior" format="1">
  <advance width="283"/>
  <unicode hex="00B9"/>
  <outline>
    <contour>
      <point x="155" y="722" type="line"/>
      <point x="38" y="637" type="line"/>
      <point x="59" y="599" type="line"/>
      <point x="124" y="638" type="line"/>
      <point x="120" y="638" type="line"/>
      <point x="120" y="403" type="line"/>
      <point x="120" y="361"/>
      <point x="113" y="333"/>
      <point x="71" y="335" type="curve"/>
      <point x="71" y="295" type="line"/>
      <point x="236" y="295" type="line"/>
      <point x="236" y="341" type="line"/>
      <point x="186" y="339" type="line"/>
      <point x="187" y="349"/>
      <point x="187" y="360"/>
      <point x="187" y="372" type="curve"/>
      <point x="186" y="722" type="line"/>
    </contour>
  </outline>
</glyph>
<glyph name="guillemotright" format="1">
  <advance width="530"/>
  <unicode hex="00BB"/>
  <outline>
    <contour>
      <point x="188" y="518" type="line"/>
      <point x="385" y="277" type="line"/>
      <point x="385" y="279" type="line"/>
      <point x="186" y="23" type="line"/>
      <point x="224" y="-15" type="line"/>
      <point x="503" y="270" type="line"/>
      <point x="503" y="280" type="line"/>
      <point x="227" y="556" type="line"/>
    </contour>
    <contour>
      <point x="50" y="436" type="line"/>
      <point x="171" y="269" type="line"/>
      <point x="171" y="271" type="line"/>
      <point x="48" y="105" type="line"/>
      <point x="87" y="69" type="line"/>
      <point x="290" y="268" type="line"/>
      <point x="290" y="277" type="line"/>
      <point x="89" y="472" type="line"/>
    </contour>
  </outline>
</glyph>
<glyph name="guilsinglright" format="1">
  <advance width="383"/>
  <unicode hex="203A"/>
  <outline>
    <contour>
      <point x="41" y="517" type="line"/>
      <point x="238" y="278" type="line"/>
      <point x="238" y="280" type="line"/>
      <point x="39" y="25" type="line"/>
      <point x="77" y="-15" type="line"/>
      <point x="356" y="271" type="line"/>
      <point x="356" y="281" type="line"/>
      <point x="80" y="557" type="line"/>
    </contour>
  </outline>
</glyph>
<glyph name="uni2074" format="1">
  <advance width="403"/>
  <unicode hex="2074"/>
  <outline>
    <contour>
      <point x="238" y="722" type="line"/>
      <point x="36" y="442" type="line"/>
      <point x="36" y="404" type="line"/>
      <point x="205" y="404" type="line"/>
      <point x="205" y="400" type="line"/>
      <point x="205" y="361"/>
      <point x="198" y="339"/>
      <point x="156" y="340" type="curve"/>
      <point x="156" y="299" type="line"/>
      <point x="313" y="299" type="line"/>
      <point x="313" y="345" type="line"/>
      <point x="272" y="343" type="line"/>
      <point x="272" y="404" type="line"/>
      <point x="328" y="404" type="line"/>
      <point x="328" y="452" type="line"/>
      <point x="272" y="453" type="line"/>
      <point x="271" y="722" type="line"/>
    </contour>
    <contour>
      <point x="205" y="454" type="line"/>
      <point x="99" y="456" type="line"/>
      <point x="211" y="613" type="line"/>
      <point x="205" y="613" type="line"/>
    </contour>
  </outline>
</glyph>
<glyph name="aiMatra_reph_anusvara-deva" format="1">
  <advance width="588"/>
  <outline>
    <component base="anusvara-deva" xOffset="360" yOffset="16" xScale="0.888" yScale="0.888"/>
    <component base="aiMatra_reph-deva"/>
    <contour>
      <point x="370" y="555" type="move" name="_top"/>
    </contour>
  </outline>
</glyph>
<glyph name="candraBindu-deva.imatra" format="1">
  <advance width="250"/>
  <note>
    dCandrabindu
  </note>
  <outline>
    <component base="eCandraMatra-deva" xOffset="-53" yOffset="5"/>
    <component base="anusvara-deva" xOffset="18" yOffset="103"/>
    <contour>
      <point x="135" y="575" type="move" name="_imatra"/>
    </contour>
    <contour>
      <point x="94" y="529" type="move" name="_top"/>
    </contour>
  </outline>
</glyph>
<glyph name="eMatra_anusvara-deva" format="1">
  <advance width="528"/>
  <note>
    dMatraEAnusvara
  </note>
  <outline>
    <component base="anusvara-deva" xOffset="312" yOffset="101" xScale="0.956" yScale="0.956"/>
    <component base="eMatra-deva"/>
    <contour>
      <point x="429" y="555" type="move" name="_top"/>
    </contour>
  </outline>
</glyph>
<glyph name="eMatra_reph_anusvara-deva" format="1">
  <advance width="275"/>
  <outline>
    <component base="eMatra_reph-deva" xOffset="-247"/>
    <component base="anusvara-deva" xOffset="121" yOffset="-45"/>
    <contour>
      <point x="183" y="555" type="move" name="_top"/>
    </contour>
  </outline>
</glyph>
<glyph name="k_ss_ma-deva" format="1">
  <advance width="935"/>
  <note>
    dKSsMa
  </note>
  <outline>
    <component base="k_ss-deva" xOffset="-14"/>
    <component base="ma-deva" xOffset="408"/>
    <contour>
      <point x="831" y="570" type="move" name="top"/>
    </contour>
    <contour>
      <point x="828" y="0" type="move" name="bottom"/>
    </contour>
  </outline>
</glyph>
<glyph name="reph_anusvara-deva.imatra" format="1">
  <advance width="293"/>
  <outline>
    <component base="anusvara-deva" xOffset="118" yOffset="54" xScale="0.888" yScale="0.888"/>
    <component base="reph-deva.imatra"/>
    <contour>
      <point x="167" y="608" type="move" name="_imatra"/>
    </contour>
    <contour>
      <point x="158" y="580" type="move" name="_top"/>
    </contour>
  </outline>
</glyph>
<glyph name="sh_r_ya-deva" format="1">
  <advance width="873"/>
  <note>
    dShRYa
  </note>
  <outline>
    <contour>
      <point x="413" y="276" type="line"/>
      <point x="335" y="247"/>
      <point x="258" y="260"/>
      <point x="212" y="309" type="curve"/>
      <point x="302" y="364"/>
      <point x="335" y="406"/>
      <point x="335" y="464" type="curve" smooth="yes"/>
      <point x="335" y="540"/>
      <point x="274" y="594"/>
      <point x="203" y="594" type="curve" smooth="yes"/>
      <point x="67" y="594"/>
      <point x="50" y="445"/>
      <point x="122" y="332" type="curve"/>
      <point x="94" y="317"/>
      <point x="60" y="301"/>
      <point x="20" y="284" type="curve"/>
      <point x="45" y="218" type="line"/>
      <point x="91" y="241"/>
      <point x="131" y="262"/>
      <point x="164" y="281" type="curve"/>
      <point x="202" y="242"/>
      <point x="263" y="210"/>
      <point x="349" y="211" type="curve"/>
      <point x="110" y="44" type="line"/>
      <point x="168" y="-17" type="line"/>
      <point x="454" y="210" type="line"/>
      <point x="453" y="211" type="line"/>
    </contour>
    <contour>
      <point x="157" y="529"/>
      <point x="190" y="557"/>
      <point x="221" y="557" type="curve" smooth="yes"/>
      <point x="247" y="557"/>
      <point x="272" y="536"/>
      <point x="272" y="497" type="curve" smooth="yes"/>
      <point x="272" y="455"/>
      <point x="261" y="417"/>
      <point x="177" y="364" type="curve"/>
      <point x="164" y="394"/>
      <point x="157" y="431"/>
      <point x="157" y="473" type="curve" smooth="yes"/>
    </contour>
    <component base="ya-deva" xOffset="346"/>
  </outline>
</glyph>
